<mxfile host="Electron" agent="Mozilla/5.0 (Macintosh; Intel Mac OS X 10_15_7) AppleWebKit/537.36 (KHTML, like Gecko) draw.io/24.7.5 Chrome/126.0.6478.183 Electron/31.3.0 Safari/537.36" version="24.7.5">
  <diagram name="Page-1" id="MUNeOR51aWTtd76pDz-g">
    <mxGraphModel dx="1393" dy="910" grid="1" gridSize="10" guides="1" tooltips="1" connect="1" arrows="1" fold="1" page="1" pageScale="1" pageWidth="850" pageHeight="1100" background="#ffffff" math="0" shadow="0">
      <root>
        <mxCell id="0" />
        <mxCell id="1" parent="0" />
        <mxCell id="E1b0ZN7hk39DKEtoDOUV-1" value="Mar 3-7" style="rounded=0;whiteSpace=wrap;html=1;fillColor=#e9e9e9;fontColor=#000000;strokeWidth=2;" vertex="1" parent="1">
          <mxGeometry x="220" y="170" width="150" height="40" as="geometry" />
        </mxCell>
        <mxCell id="E1b0ZN7hk39DKEtoDOUV-3" value="Mar 10-14" style="rounded=0;whiteSpace=wrap;html=1;fillColor=#e9e9e9;fontColor=#000000;strokeWidth=2;" vertex="1" parent="1">
          <mxGeometry x="370" y="170" width="150" height="40" as="geometry" />
        </mxCell>
        <mxCell id="E1b0ZN7hk39DKEtoDOUV-4" value="Mar 17-21" style="rounded=0;whiteSpace=wrap;html=1;fillColor=#e9e9e9;fontColor=#000000;strokeWidth=2;" vertex="1" parent="1">
          <mxGeometry x="520" y="170" width="150" height="40" as="geometry" />
        </mxCell>
        <mxCell id="E1b0ZN7hk39DKEtoDOUV-5" value="Mar 24-28" style="rounded=0;whiteSpace=wrap;html=1;fillColor=#e9e9e9;fontColor=#000000;strokeWidth=2;" vertex="1" parent="1">
          <mxGeometry x="670" y="170" width="150" height="40" as="geometry" />
        </mxCell>
        <mxCell id="E1b0ZN7hk39DKEtoDOUV-6" value="Mar 31-Apr 4" style="rounded=0;whiteSpace=wrap;html=1;fillColor=#e9e9e9;fontColor=#000000;strokeWidth=2;" vertex="1" parent="1">
          <mxGeometry x="820" y="170" width="150" height="40" as="geometry" />
        </mxCell>
        <mxCell id="E1b0ZN7hk39DKEtoDOUV-7" value="Apr 7-11" style="rounded=0;whiteSpace=wrap;html=1;fillColor=#e9e9e9;fontColor=#000000;strokeWidth=2;" vertex="1" parent="1">
          <mxGeometry x="970" y="170" width="150" height="40" as="geometry" />
        </mxCell>
        <mxCell id="E1b0ZN7hk39DKEtoDOUV-9" value="M" style="rounded=0;whiteSpace=wrap;html=1;fillColor=#7fd8fb;fontColor=#FFFFFF;strokeColor=default;" vertex="1" parent="1">
          <mxGeometry x="220" y="210" width="30" height="20" as="geometry" />
        </mxCell>
        <mxCell id="E1b0ZN7hk39DKEtoDOUV-10" value="T" style="rounded=0;whiteSpace=wrap;html=1;fillColor=#7fd8fb;fontColor=#FFFFFF;strokeColor=default;" vertex="1" parent="1">
          <mxGeometry x="250" y="210" width="30" height="20" as="geometry" />
        </mxCell>
        <mxCell id="E1b0ZN7hk39DKEtoDOUV-11" value="W" style="rounded=0;whiteSpace=wrap;html=1;fillColor=#7fd8fb;fontColor=#FFFFFF;strokeColor=default;" vertex="1" parent="1">
          <mxGeometry x="280" y="210" width="30" height="20" as="geometry" />
        </mxCell>
        <mxCell id="E1b0ZN7hk39DKEtoDOUV-12" value="T" style="rounded=0;whiteSpace=wrap;html=1;fillColor=#7fd8fb;fontColor=#FFFFFF;strokeColor=default;" vertex="1" parent="1">
          <mxGeometry x="310" y="210" width="30" height="20" as="geometry" />
        </mxCell>
        <mxCell id="E1b0ZN7hk39DKEtoDOUV-13" value="F" style="rounded=0;whiteSpace=wrap;html=1;fillColor=#7fd8fb;fontColor=#FFFFFF;strokeColor=default;" vertex="1" parent="1">
          <mxGeometry x="340" y="210" width="30" height="20" as="geometry" />
        </mxCell>
        <mxCell id="E1b0ZN7hk39DKEtoDOUV-14" value="M" style="rounded=0;whiteSpace=wrap;html=1;fillColor=#6dbad8;fontColor=#FFFFFF;strokeColor=default;align=center;verticalAlign=middle;fontFamily=Helvetica;fontSize=12;" vertex="1" parent="1">
          <mxGeometry x="370" y="210" width="30" height="20" as="geometry" />
        </mxCell>
        <mxCell id="E1b0ZN7hk39DKEtoDOUV-15" value="T" style="rounded=0;whiteSpace=wrap;html=1;fillColor=#6dbad8;fontColor=#FFFFFF;strokeColor=default;align=center;verticalAlign=middle;fontFamily=Helvetica;fontSize=12;" vertex="1" parent="1">
          <mxGeometry x="400" y="210" width="30" height="20" as="geometry" />
        </mxCell>
        <mxCell id="E1b0ZN7hk39DKEtoDOUV-16" value="W" style="rounded=0;whiteSpace=wrap;html=1;fillColor=#6dbad8;fontColor=#FFFFFF;strokeColor=default;align=center;verticalAlign=middle;fontFamily=Helvetica;fontSize=12;" vertex="1" parent="1">
          <mxGeometry x="430" y="210" width="30" height="20" as="geometry" />
        </mxCell>
        <mxCell id="E1b0ZN7hk39DKEtoDOUV-17" value="T" style="rounded=0;whiteSpace=wrap;html=1;fillColor=#6dbad8;fontColor=#FFFFFF;strokeColor=default;align=center;verticalAlign=middle;fontFamily=Helvetica;fontSize=12;" vertex="1" parent="1">
          <mxGeometry x="460" y="210" width="30" height="20" as="geometry" />
        </mxCell>
        <mxCell id="E1b0ZN7hk39DKEtoDOUV-18" value="F" style="rounded=0;whiteSpace=wrap;html=1;fillColor=#6dbad8;fontColor=#FFFFFF;strokeColor=default;align=center;verticalAlign=middle;fontFamily=Helvetica;fontSize=12;" vertex="1" parent="1">
          <mxGeometry x="490" y="210" width="30" height="20" as="geometry" />
        </mxCell>
        <mxCell id="E1b0ZN7hk39DKEtoDOUV-19" value="M" style="rounded=0;whiteSpace=wrap;html=1;fillColor=#6c99cb;fontColor=#FFFFFF;strokeColor=default;align=center;verticalAlign=middle;fontFamily=Helvetica;fontSize=12;" vertex="1" parent="1">
          <mxGeometry x="520" y="210" width="30" height="20" as="geometry" />
        </mxCell>
        <mxCell id="E1b0ZN7hk39DKEtoDOUV-20" value="T" style="rounded=0;whiteSpace=wrap;html=1;fillColor=#6c99cb;fontColor=#FFFFFF;strokeColor=default;align=center;verticalAlign=middle;fontFamily=Helvetica;fontSize=12;" vertex="1" parent="1">
          <mxGeometry x="550" y="210" width="30" height="20" as="geometry" />
        </mxCell>
        <mxCell id="E1b0ZN7hk39DKEtoDOUV-21" value="W" style="rounded=0;whiteSpace=wrap;html=1;fillColor=#6c99cb;fontColor=#FFFFFF;strokeColor=default;align=center;verticalAlign=middle;fontFamily=Helvetica;fontSize=12;" vertex="1" parent="1">
          <mxGeometry x="580" y="210" width="30" height="20" as="geometry" />
        </mxCell>
        <mxCell id="E1b0ZN7hk39DKEtoDOUV-22" value="T" style="rounded=0;whiteSpace=wrap;html=1;fillColor=#6c99cb;fontColor=#FFFFFF;strokeColor=default;align=center;verticalAlign=middle;fontFamily=Helvetica;fontSize=12;" vertex="1" parent="1">
          <mxGeometry x="610" y="210" width="30" height="20" as="geometry" />
        </mxCell>
        <mxCell id="E1b0ZN7hk39DKEtoDOUV-23" value="F" style="rounded=0;whiteSpace=wrap;html=1;fillColor=#6c99cb;fontColor=#FFFFFF;strokeColor=default;align=center;verticalAlign=middle;fontFamily=Helvetica;fontSize=12;" vertex="1" parent="1">
          <mxGeometry x="640" y="210" width="30" height="20" as="geometry" />
        </mxCell>
        <mxCell id="E1b0ZN7hk39DKEtoDOUV-24" value="M" style="rounded=0;whiteSpace=wrap;html=1;fillColor=#476893;fontColor=#FFFFFF;strokeColor=default;align=center;verticalAlign=middle;fontFamily=Helvetica;fontSize=12;" vertex="1" parent="1">
          <mxGeometry x="670" y="210" width="30" height="20" as="geometry" />
        </mxCell>
        <mxCell id="E1b0ZN7hk39DKEtoDOUV-25" value="T" style="rounded=0;whiteSpace=wrap;html=1;fillColor=#476893;fontColor=#FFFFFF;strokeColor=default;align=center;verticalAlign=middle;fontFamily=Helvetica;fontSize=12;" vertex="1" parent="1">
          <mxGeometry x="700" y="210" width="30" height="20" as="geometry" />
        </mxCell>
        <mxCell id="E1b0ZN7hk39DKEtoDOUV-26" value="W" style="rounded=0;whiteSpace=wrap;html=1;fillColor=#476893;fontColor=#FFFFFF;strokeColor=default;align=center;verticalAlign=middle;fontFamily=Helvetica;fontSize=12;" vertex="1" parent="1">
          <mxGeometry x="730" y="210" width="30" height="20" as="geometry" />
        </mxCell>
        <mxCell id="E1b0ZN7hk39DKEtoDOUV-27" value="T" style="rounded=0;whiteSpace=wrap;html=1;fillColor=#476893;fontColor=#FFFFFF;strokeColor=default;align=center;verticalAlign=middle;fontFamily=Helvetica;fontSize=12;" vertex="1" parent="1">
          <mxGeometry x="760" y="210" width="30" height="20" as="geometry" />
        </mxCell>
        <mxCell id="E1b0ZN7hk39DKEtoDOUV-28" value="F" style="rounded=0;whiteSpace=wrap;html=1;fillColor=#476893;fontColor=#FFFFFF;strokeColor=default;align=center;verticalAlign=middle;fontFamily=Helvetica;fontSize=12;" vertex="1" parent="1">
          <mxGeometry x="790" y="210" width="30" height="20" as="geometry" />
        </mxCell>
        <mxCell id="E1b0ZN7hk39DKEtoDOUV-29" value="M" style="rounded=0;whiteSpace=wrap;html=1;fillColor=#676AC3;fontColor=#FFFFFF;strokeColor=default;align=center;verticalAlign=middle;fontFamily=Helvetica;fontSize=12;" vertex="1" parent="1">
          <mxGeometry x="820" y="210" width="30" height="20" as="geometry" />
        </mxCell>
        <mxCell id="E1b0ZN7hk39DKEtoDOUV-30" value="T" style="rounded=0;whiteSpace=wrap;html=1;fillColor=#676AC3;fontColor=#FFFFFF;strokeColor=default;align=center;verticalAlign=middle;fontFamily=Helvetica;fontSize=12;" vertex="1" parent="1">
          <mxGeometry x="850" y="210" width="30" height="20" as="geometry" />
        </mxCell>
        <mxCell id="E1b0ZN7hk39DKEtoDOUV-31" value="W" style="rounded=0;whiteSpace=wrap;html=1;fillColor=#676AC3;fontColor=#FFFFFF;strokeColor=default;align=center;verticalAlign=middle;fontFamily=Helvetica;fontSize=12;" vertex="1" parent="1">
          <mxGeometry x="880" y="210" width="30" height="20" as="geometry" />
        </mxCell>
        <mxCell id="E1b0ZN7hk39DKEtoDOUV-32" value="T" style="rounded=0;whiteSpace=wrap;html=1;fillColor=#676AC3;fontColor=#FFFFFF;strokeColor=default;align=center;verticalAlign=middle;fontFamily=Helvetica;fontSize=12;" vertex="1" parent="1">
          <mxGeometry x="910" y="210" width="30" height="20" as="geometry" />
        </mxCell>
        <mxCell id="E1b0ZN7hk39DKEtoDOUV-33" value="F" style="rounded=0;whiteSpace=wrap;html=1;fillColor=#676AC3;fontColor=#FFFFFF;strokeColor=default;align=center;verticalAlign=middle;fontFamily=Helvetica;fontSize=12;" vertex="1" parent="1">
          <mxGeometry x="940" y="210" width="30" height="20" as="geometry" />
        </mxCell>
        <mxCell id="E1b0ZN7hk39DKEtoDOUV-34" value="M" style="rounded=0;whiteSpace=wrap;html=1;fillColor=#665F8F;fontColor=#FFFFFF;strokeColor=default;align=center;verticalAlign=middle;fontFamily=Helvetica;fontSize=12;" vertex="1" parent="1">
          <mxGeometry x="970" y="210" width="30" height="20" as="geometry" />
        </mxCell>
        <mxCell id="E1b0ZN7hk39DKEtoDOUV-35" value="T" style="rounded=0;whiteSpace=wrap;html=1;fillColor=#665F8F;fontColor=#FFFFFF;strokeColor=default;align=center;verticalAlign=middle;fontFamily=Helvetica;fontSize=12;" vertex="1" parent="1">
          <mxGeometry x="1000" y="210" width="30" height="20" as="geometry" />
        </mxCell>
        <mxCell id="E1b0ZN7hk39DKEtoDOUV-36" value="W" style="rounded=0;whiteSpace=wrap;html=1;fillColor=#665F8F;fontColor=#FFFFFF;strokeColor=default;align=center;verticalAlign=middle;fontFamily=Helvetica;fontSize=12;" vertex="1" parent="1">
          <mxGeometry x="1030" y="210" width="30" height="20" as="geometry" />
        </mxCell>
        <mxCell id="E1b0ZN7hk39DKEtoDOUV-37" value="T" style="rounded=0;whiteSpace=wrap;html=1;fillColor=#665F8F;fontColor=#FFFFFF;strokeColor=default;align=center;verticalAlign=middle;fontFamily=Helvetica;fontSize=12;" vertex="1" parent="1">
          <mxGeometry x="1060" y="210" width="30" height="20" as="geometry" />
        </mxCell>
        <mxCell id="E1b0ZN7hk39DKEtoDOUV-38" value="F" style="rounded=0;whiteSpace=wrap;html=1;fillColor=#665F8F;fontColor=#FFFFFF;strokeColor=default;align=center;verticalAlign=middle;fontFamily=Helvetica;fontSize=12;" vertex="1" parent="1">
          <mxGeometry x="1090" y="210" width="30" height="20" as="geometry" />
        </mxCell>
        <mxCell id="E1b0ZN7hk39DKEtoDOUV-39" value="Task 1" style="rounded=0;whiteSpace=wrap;html=1;fillColor=#1b3f6f;fontColor=#FFFFFF;strokeColor=default;" vertex="1" parent="1">
          <mxGeometry x="60" y="250" width="150" height="40" as="geometry" />
        </mxCell>
        <mxCell id="E1b0ZN7hk39DKEtoDOUV-40" value="Activity 1" style="rounded=0;whiteSpace=wrap;html=1;fillColor=#dee5eb;fontColor=#51677f;" vertex="1" parent="1">
          <mxGeometry x="60" y="290" width="150" height="30" as="geometry" />
        </mxCell>
        <mxCell id="E1b0ZN7hk39DKEtoDOUV-41" value="Activity 2" style="rounded=0;whiteSpace=wrap;html=1;fillColor=#dee5eb;fontColor=#51677f;" vertex="1" parent="1">
          <mxGeometry x="60" y="320" width="150" height="30" as="geometry" />
        </mxCell>
        <mxCell id="E1b0ZN7hk39DKEtoDOUV-42" value="Activity 3" style="rounded=0;whiteSpace=wrap;html=1;fillColor=#dee5eb;fontColor=#51677f;" vertex="1" parent="1">
          <mxGeometry x="60" y="350" width="150" height="30" as="geometry" />
        </mxCell>
        <mxCell id="E1b0ZN7hk39DKEtoDOUV-43" value="Task 2" style="rounded=0;whiteSpace=wrap;html=1;fillColor=#1b3f6f;fontColor=#FFFFFF;strokeColor=default;" vertex="1" parent="1">
          <mxGeometry x="60" y="380" width="150" height="40" as="geometry" />
        </mxCell>
        <mxCell id="E1b0ZN7hk39DKEtoDOUV-44" value="Activity 1" style="rounded=0;whiteSpace=wrap;html=1;fillColor=#dee5eb;fontColor=#51677f;" vertex="1" parent="1">
          <mxGeometry x="60" y="420" width="150" height="30" as="geometry" />
        </mxCell>
        <mxCell id="E1b0ZN7hk39DKEtoDOUV-45" value="Activity 2" style="rounded=0;whiteSpace=wrap;html=1;fillColor=#dee5eb;fontColor=#51677f;" vertex="1" parent="1">
          <mxGeometry x="60" y="450" width="150" height="30" as="geometry" />
        </mxCell>
        <mxCell id="E1b0ZN7hk39DKEtoDOUV-46" value="Activity 3" style="rounded=0;whiteSpace=wrap;html=1;fillColor=#dee5eb;fontColor=#51677f;" vertex="1" parent="1">
          <mxGeometry x="60" y="480" width="150" height="30" as="geometry" />
        </mxCell>
        <mxCell id="E1b0ZN7hk39DKEtoDOUV-47" value="Task 3" style="rounded=0;whiteSpace=wrap;html=1;fillColor=#1b3f6f;fontColor=#FFFFFF;strokeColor=default;" vertex="1" parent="1">
          <mxGeometry x="60" y="510" width="150" height="40" as="geometry" />
        </mxCell>
        <mxCell id="E1b0ZN7hk39DKEtoDOUV-48" value="Activity 1" style="rounded=0;whiteSpace=wrap;html=1;fillColor=#dee5eb;fontColor=#51677f;" vertex="1" parent="1">
          <mxGeometry x="60" y="550" width="150" height="30" as="geometry" />
        </mxCell>
        <mxCell id="E1b0ZN7hk39DKEtoDOUV-49" value="Activity 2" style="rounded=0;whiteSpace=wrap;html=1;fillColor=#dee5eb;fontColor=#51677f;" vertex="1" parent="1">
          <mxGeometry x="60" y="580" width="150" height="30" as="geometry" />
        </mxCell>
        <mxCell id="E1b0ZN7hk39DKEtoDOUV-50" value="Activity 3" style="rounded=0;whiteSpace=wrap;html=1;fillColor=#dee5eb;fontColor=#51677f;" vertex="1" parent="1">
          <mxGeometry x="60" y="610" width="150" height="30" as="geometry" />
        </mxCell>
        <mxCell id="E1b0ZN7hk39DKEtoDOUV-51" value="Activity 4" style="rounded=0;whiteSpace=wrap;html=1;fillColor=#dee5eb;fontColor=#51677f;" vertex="1" parent="1">
          <mxGeometry x="60" y="640" width="150" height="30" as="geometry" />
        </mxCell>
        <mxCell id="E1b0ZN7hk39DKEtoDOUV-52" value="Activity 5" style="rounded=0;whiteSpace=wrap;html=1;fillColor=#dee5eb;fontColor=#51677f;" vertex="1" parent="1">
          <mxGeometry x="60" y="670" width="150" height="30" as="geometry" />
        </mxCell>
        <mxCell id="E1b0ZN7hk39DKEtoDOUV-53" value="" style="rounded=0;whiteSpace=wrap;html=1;fillColor=#e9e9e9;fontColor=#000000;strokeColor=default;align=center;verticalAlign=middle;fontFamily=Helvetica;fontSize=12;" vertex="1" parent="1">
          <mxGeometry x="220" y="290" width="900" height="30" as="geometry" />
        </mxCell>
        <mxCell id="E1b0ZN7hk39DKEtoDOUV-54" value="" style="rounded=0;whiteSpace=wrap;html=1;fillColor=#e9e9e9;fontColor=#000000;strokeColor=default;align=center;verticalAlign=middle;fontFamily=Helvetica;fontSize=12;" vertex="1" parent="1">
          <mxGeometry x="220" y="320" width="900" height="30" as="geometry" />
        </mxCell>
        <mxCell id="E1b0ZN7hk39DKEtoDOUV-55" value="" style="rounded=0;whiteSpace=wrap;html=1;fillColor=#e9e9e9;fontColor=#000000;strokeColor=default;align=center;verticalAlign=middle;fontFamily=Helvetica;fontSize=12;" vertex="1" parent="1">
          <mxGeometry x="220" y="420" width="900" height="30" as="geometry" />
        </mxCell>
        <mxCell id="E1b0ZN7hk39DKEtoDOUV-56" value="" style="rounded=0;whiteSpace=wrap;html=1;fillColor=#e9e9e9;fontColor=#000000;strokeColor=default;align=center;verticalAlign=middle;fontFamily=Helvetica;fontSize=12;" vertex="1" parent="1">
          <mxGeometry x="220" y="450" width="900" height="30" as="geometry" />
        </mxCell>
        <mxCell id="E1b0ZN7hk39DKEtoDOUV-57" value="" style="rounded=0;whiteSpace=wrap;html=1;fillColor=#e9e9e9;fontColor=#000000;strokeColor=default;align=center;verticalAlign=middle;fontFamily=Helvetica;fontSize=12;" vertex="1" parent="1">
          <mxGeometry x="220" y="480" width="900" height="30" as="geometry" />
        </mxCell>
        <mxCell id="E1b0ZN7hk39DKEtoDOUV-58" value="" style="rounded=0;whiteSpace=wrap;html=1;fillColor=#e9e9e9;fontColor=#000000;strokeColor=default;align=center;verticalAlign=middle;fontFamily=Helvetica;fontSize=12;" vertex="1" parent="1">
          <mxGeometry x="220" y="550" width="900" height="30" as="geometry" />
        </mxCell>
        <mxCell id="E1b0ZN7hk39DKEtoDOUV-59" value="" style="rounded=0;whiteSpace=wrap;html=1;fillColor=#e9e9e9;fontColor=#000000;strokeColor=default;align=center;verticalAlign=middle;fontFamily=Helvetica;fontSize=12;" vertex="1" parent="1">
          <mxGeometry x="220" y="580" width="900" height="30" as="geometry" />
        </mxCell>
        <mxCell id="E1b0ZN7hk39DKEtoDOUV-60" value="" style="rounded=0;whiteSpace=wrap;html=1;fillColor=#e9e9e9;fontColor=#000000;strokeColor=default;align=center;verticalAlign=middle;fontFamily=Helvetica;fontSize=12;" vertex="1" parent="1">
          <mxGeometry x="220" y="610" width="900" height="30" as="geometry" />
        </mxCell>
        <mxCell id="E1b0ZN7hk39DKEtoDOUV-61" value="" style="rounded=0;whiteSpace=wrap;html=1;fillColor=#e9e9e9;fontColor=#000000;strokeColor=default;align=center;verticalAlign=middle;fontFamily=Helvetica;fontSize=12;" vertex="1" parent="1">
          <mxGeometry x="220" y="640" width="900" height="30" as="geometry" />
        </mxCell>
        <mxCell id="E1b0ZN7hk39DKEtoDOUV-62" value="" style="rounded=0;whiteSpace=wrap;html=1;fillColor=#e9e9e9;fontColor=#000000;strokeColor=default;align=center;verticalAlign=middle;fontFamily=Helvetica;fontSize=12;" vertex="1" parent="1">
          <mxGeometry x="220" y="670" width="900" height="30" as="geometry" />
        </mxCell>
        <mxCell id="E1b0ZN7hk39DKEtoDOUV-63" value="" style="rounded=0;whiteSpace=wrap;html=1;fillColor=#e9e9e9;fontColor=#000000;strokeColor=default;align=center;verticalAlign=middle;fontFamily=Helvetica;fontSize=12;" vertex="1" parent="1">
          <mxGeometry x="220" y="350" width="900" height="30" as="geometry" />
        </mxCell>
        <mxCell id="E1b0ZN7hk39DKEtoDOUV-64" value="" style="rounded=0;whiteSpace=wrap;html=1;fillColor=#7fd8fb;fontColor=#000000;strokeColor=default;align=center;verticalAlign=middle;fontFamily=Helvetica;fontSize=12;" vertex="1" parent="1">
          <mxGeometry x="220" y="290" width="150" height="30" as="geometry" />
        </mxCell>
        <mxCell id="E1b0ZN7hk39DKEtoDOUV-67" value="" style="rounded=0;whiteSpace=wrap;html=1;fillColor=#6dbad8;fontColor=#FFFFFF;strokeColor=default;align=center;verticalAlign=middle;fontFamily=Helvetica;fontSize=12;" vertex="1" parent="1">
          <mxGeometry x="370" y="290" width="120" height="30" as="geometry" />
        </mxCell>
        <mxCell id="E1b0ZN7hk39DKEtoDOUV-69" value="HB" style="ellipse;whiteSpace=wrap;html=1;aspect=fixed;fillColor=#EE9636;" vertex="1" parent="1">
          <mxGeometry x="1140" y="290" width="30" height="30" as="geometry" />
        </mxCell>
        <mxCell id="E1b0ZN7hk39DKEtoDOUV-70" value="KX" style="ellipse;whiteSpace=wrap;html=1;aspect=fixed;fillColor=#EE9636;" vertex="1" parent="1">
          <mxGeometry x="1140" y="320" width="30" height="30" as="geometry" />
        </mxCell>
        <mxCell id="E1b0ZN7hk39DKEtoDOUV-71" value="PK" style="ellipse;whiteSpace=wrap;html=1;aspect=fixed;fillColor=#EE9636;" vertex="1" parent="1">
          <mxGeometry x="1140" y="350" width="30" height="30" as="geometry" />
        </mxCell>
        <mxCell id="E1b0ZN7hk39DKEtoDOUV-72" value="HB" style="ellipse;whiteSpace=wrap;html=1;aspect=fixed;fillColor=#EE9636;" vertex="1" parent="1">
          <mxGeometry x="1140" y="420" width="30" height="30" as="geometry" />
        </mxCell>
        <mxCell id="E1b0ZN7hk39DKEtoDOUV-73" value="KX" style="ellipse;whiteSpace=wrap;html=1;aspect=fixed;fillColor=#EE9636;" vertex="1" parent="1">
          <mxGeometry x="1140" y="450" width="30" height="30" as="geometry" />
        </mxCell>
        <mxCell id="E1b0ZN7hk39DKEtoDOUV-74" value="PK" style="ellipse;whiteSpace=wrap;html=1;aspect=fixed;fillColor=#EE9636;" vertex="1" parent="1">
          <mxGeometry x="1140" y="480" width="30" height="30" as="geometry" />
        </mxCell>
        <mxCell id="E1b0ZN7hk39DKEtoDOUV-75" value="HB" style="ellipse;whiteSpace=wrap;html=1;aspect=fixed;fillColor=#EE9636;" vertex="1" parent="1">
          <mxGeometry x="1140" y="550" width="30" height="30" as="geometry" />
        </mxCell>
        <mxCell id="E1b0ZN7hk39DKEtoDOUV-76" value="KX" style="ellipse;whiteSpace=wrap;html=1;aspect=fixed;fillColor=#EE9636;" vertex="1" parent="1">
          <mxGeometry x="1140" y="580" width="30" height="30" as="geometry" />
        </mxCell>
        <mxCell id="E1b0ZN7hk39DKEtoDOUV-77" value="PK" style="ellipse;whiteSpace=wrap;html=1;aspect=fixed;fillColor=#EE9636;" vertex="1" parent="1">
          <mxGeometry x="1140" y="610" width="30" height="30" as="geometry" />
        </mxCell>
        <mxCell id="E1b0ZN7hk39DKEtoDOUV-78" value="KX" style="ellipse;whiteSpace=wrap;html=1;aspect=fixed;fillColor=#EE9636;" vertex="1" parent="1">
          <mxGeometry x="1140" y="640" width="30" height="30" as="geometry" />
        </mxCell>
        <mxCell id="E1b0ZN7hk39DKEtoDOUV-79" value="HB" style="ellipse;whiteSpace=wrap;html=1;aspect=fixed;fillColor=#EE9636;" vertex="1" parent="1">
          <mxGeometry x="1140" y="670" width="30" height="30" as="geometry" />
        </mxCell>
        <mxCell id="E1b0ZN7hk39DKEtoDOUV-80" value="" style="rounded=0;whiteSpace=wrap;html=1;fillColor=#6dbad8;fontColor=#FFFFFF;strokeColor=default;align=center;verticalAlign=middle;fontFamily=Helvetica;fontSize=12;" vertex="1" parent="1">
          <mxGeometry x="370" y="320" width="150" height="30" as="geometry" />
        </mxCell>
        <mxCell id="E1b0ZN7hk39DKEtoDOUV-81" value="" style="rounded=0;whiteSpace=wrap;html=1;fillColor=#6c99cb;fontColor=#FFFFFF;strokeColor=default;align=center;verticalAlign=middle;fontFamily=Helvetica;fontSize=12;" vertex="1" parent="1">
          <mxGeometry x="520" y="320" width="150" height="30" as="geometry" />
        </mxCell>
        <mxCell id="E1b0ZN7hk39DKEtoDOUV-82" value="" style="rounded=0;whiteSpace=wrap;html=1;fillColor=#6c99cb;fontColor=#FFFFFF;strokeColor=default;align=center;verticalAlign=middle;fontFamily=Helvetica;fontSize=12;" vertex="1" parent="1">
          <mxGeometry x="520" y="350" width="150" height="30" as="geometry" />
        </mxCell>
        <mxCell id="E1b0ZN7hk39DKEtoDOUV-84" value="" style="rounded=0;whiteSpace=wrap;html=1;fillColor=#6dbad8;fontColor=#FFFFFF;strokeColor=default;align=center;verticalAlign=middle;fontFamily=Helvetica;fontSize=12;" vertex="1" parent="1">
          <mxGeometry x="430" y="350" width="90" height="30" as="geometry" />
        </mxCell>
        <mxCell id="E1b0ZN7hk39DKEtoDOUV-85" value="" style="rounded=0;whiteSpace=wrap;html=1;fillColor=#476893;fontColor=#FFFFFF;strokeColor=default;align=center;verticalAlign=middle;fontFamily=Helvetica;fontSize=12;" vertex="1" parent="1">
          <mxGeometry x="670" y="350" width="120" height="30" as="geometry" />
        </mxCell>
        <mxCell id="E1b0ZN7hk39DKEtoDOUV-86" value="" style="rounded=0;whiteSpace=wrap;html=1;fillColor=#6c99cb;fontColor=#FFFFFF;strokeColor=default;align=center;verticalAlign=middle;fontFamily=Helvetica;fontSize=12;" vertex="1" parent="1">
          <mxGeometry x="550" y="420" width="120" height="30" as="geometry" />
        </mxCell>
        <mxCell id="E1b0ZN7hk39DKEtoDOUV-87" value="" style="rounded=0;whiteSpace=wrap;html=1;fillColor=#476893;fontColor=#FFFFFF;strokeColor=default;align=center;verticalAlign=middle;fontFamily=Helvetica;fontSize=12;" vertex="1" parent="1">
          <mxGeometry x="670" y="420" width="90" height="30" as="geometry" />
        </mxCell>
        <mxCell id="E1b0ZN7hk39DKEtoDOUV-88" value="" style="rounded=0;whiteSpace=wrap;html=1;fillColor=#6c99cb;fontColor=#FFFFFF;strokeColor=default;align=center;verticalAlign=middle;fontFamily=Helvetica;fontSize=12;" vertex="1" parent="1">
          <mxGeometry x="610" y="450" width="60" height="30" as="geometry" />
        </mxCell>
        <mxCell id="E1b0ZN7hk39DKEtoDOUV-90" value="" style="rounded=0;whiteSpace=wrap;html=1;fillColor=#476893;fontColor=#FFFFFF;strokeColor=default;align=center;verticalAlign=middle;fontFamily=Helvetica;fontSize=12;" vertex="1" parent="1">
          <mxGeometry x="670" y="450" width="150" height="30" as="geometry" />
        </mxCell>
        <mxCell id="E1b0ZN7hk39DKEtoDOUV-91" value="" style="rounded=0;whiteSpace=wrap;html=1;fillColor=#476893;fontColor=#FFFFFF;strokeColor=default;align=center;verticalAlign=middle;fontFamily=Helvetica;fontSize=12;" vertex="1" parent="1">
          <mxGeometry x="730" y="480" width="90" height="30" as="geometry" />
        </mxCell>
        <mxCell id="E1b0ZN7hk39DKEtoDOUV-92" value="" style="rounded=0;whiteSpace=wrap;html=1;fillColor=#676AC3;fontColor=#FFFFFF;strokeColor=default;align=center;verticalAlign=middle;fontFamily=Helvetica;fontSize=12;" vertex="1" parent="1">
          <mxGeometry x="820" y="450" width="90" height="30" as="geometry" />
        </mxCell>
        <mxCell id="E1b0ZN7hk39DKEtoDOUV-93" value="" style="rounded=0;whiteSpace=wrap;html=1;fillColor=#676AC3;fontColor=#FFFFFF;strokeColor=default;align=center;verticalAlign=middle;fontFamily=Helvetica;fontSize=12;" vertex="1" parent="1">
          <mxGeometry x="820" y="480" width="150" height="30" as="geometry" />
        </mxCell>
        <mxCell id="E1b0ZN7hk39DKEtoDOUV-94" value="" style="rounded=0;whiteSpace=wrap;html=1;fillColor=#665F8F;fontColor=#FFFFFF;strokeColor=default;align=center;verticalAlign=middle;fontFamily=Helvetica;fontSize=12;" vertex="1" parent="1">
          <mxGeometry x="970" y="480" width="60" height="30" as="geometry" />
        </mxCell>
        <mxCell id="E1b0ZN7hk39DKEtoDOUV-95" value="" style="rounded=0;whiteSpace=wrap;html=1;fillColor=#6c99cb;fontColor=#FFFFFF;strokeColor=default;align=center;verticalAlign=middle;fontFamily=Helvetica;fontSize=12;" vertex="1" parent="1">
          <mxGeometry x="580" y="550" width="90" height="30" as="geometry" />
        </mxCell>
        <mxCell id="E1b0ZN7hk39DKEtoDOUV-96" value="" style="rounded=0;whiteSpace=wrap;html=1;fillColor=#476893;fontColor=#FFFFFF;strokeColor=default;align=center;verticalAlign=middle;fontFamily=Helvetica;fontSize=12;" vertex="1" parent="1">
          <mxGeometry x="670" y="580" width="150" height="30" as="geometry" />
        </mxCell>
        <mxCell id="E1b0ZN7hk39DKEtoDOUV-97" value="" style="rounded=0;whiteSpace=wrap;html=1;fillColor=#476893;fontColor=#FFFFFF;strokeColor=default;align=center;verticalAlign=middle;fontFamily=Helvetica;fontSize=12;" vertex="1" parent="1">
          <mxGeometry x="730" y="640" width="90" height="30" as="geometry" />
        </mxCell>
        <mxCell id="E1b0ZN7hk39DKEtoDOUV-98" value="" style="rounded=0;whiteSpace=wrap;html=1;fillColor=#676AC3;fontColor=#FFFFFF;strokeColor=default;align=center;verticalAlign=middle;fontFamily=Helvetica;fontSize=12;" vertex="1" parent="1">
          <mxGeometry x="820" y="610" width="150" height="30" as="geometry" />
        </mxCell>
        <mxCell id="E1b0ZN7hk39DKEtoDOUV-99" value="" style="rounded=0;whiteSpace=wrap;html=1;fillColor=#676AC3;fontColor=#FFFFFF;strokeColor=default;align=center;verticalAlign=middle;fontFamily=Helvetica;fontSize=12;" vertex="1" parent="1">
          <mxGeometry x="820" y="640" width="150" height="30" as="geometry" />
        </mxCell>
        <mxCell id="E1b0ZN7hk39DKEtoDOUV-101" value="" style="rounded=0;whiteSpace=wrap;html=1;fillColor=#676AC3;fontColor=#FFFFFF;strokeColor=default;align=center;verticalAlign=middle;fontFamily=Helvetica;fontSize=12;" vertex="1" parent="1">
          <mxGeometry x="820" y="670" width="150" height="30" as="geometry" />
        </mxCell>
        <mxCell id="E1b0ZN7hk39DKEtoDOUV-103" value="" style="rounded=0;whiteSpace=wrap;html=1;fillColor=#665F8F;fontColor=#FFFFFF;strokeColor=default;align=center;verticalAlign=middle;fontFamily=Helvetica;fontSize=12;" vertex="1" parent="1">
          <mxGeometry x="970" y="670" width="150" height="30" as="geometry" />
        </mxCell>
      </root>
    </mxGraphModel>
  </diagram>
</mxfile>
